<svg width="18" height="18" viewBox="0 0 18 18" fill="none" xmlns="http://www.w3.org/2000/svg">
<path d="M9.00618 10.872L2.47511 17.4076C2.23075 17.6521 1.91968 17.7745 1.54191 17.7746C1.16413 17.7747 0.852975 17.6526 0.608445 17.4082C0.363916 17.1639 0.241587 16.8528 0.241456 16.475C0.241326 16.0973 0.36344 15.7861 0.6078 15.5416L7.13887 9.00598L0.603279 2.47491C0.35875 2.23055 0.23642 1.91948 0.23629 1.5417C0.236159 1.16392 0.358273 0.852768 0.602633 0.608239C0.846993 0.363709 1.15806 0.24138 1.53584 0.241249C1.91362 0.241119 2.22477 0.363233 2.4693 0.607593L9.00489 7.13867L15.536 0.603072C15.7803 0.358543 16.0914 0.236213 16.4692 0.236083C16.847 0.235952 17.1581 0.358066 17.4026 0.602426C17.6472 0.846786 17.7695 1.15785 17.7696 1.53563C17.7698 1.91341 17.6476 2.22456 17.4033 2.46909L10.8722 9.00469L17.4078 15.5358C17.6523 15.7801 17.7747 16.0912 17.7748 16.469C17.7749 16.8467 17.6528 17.1579 17.4084 17.4024C17.1641 17.647 16.853 17.7693 16.4752 17.7694C16.0975 17.7695 15.7863 17.6474 15.5418 17.4031L9.00618 10.872Z" fill="white"/>
</svg>
